# xmcd
#
# Track frame offsets: 
#        150
#        21614
#        38160
#        57062
#        74896
#        92300
#        111831
#        129695
#        143047
#        159867
#        174252
#
# Disc length: 2572 seconds
#
# Revision: 5
# Processed by: cddbd v1.5.2PL0 Copyright (c) Steve Scherf et al.
# Submitted via: ExactAudioCopy v0.99pb1
#
DISCID=920a0a0b
DTITLE=Billy Currington - Little Bit Of Everything
DYEAR=2008
DGENRE=Country
TTITLE0=Swimmin' In Sunshine
TTITLE1=Life and Love And The Meaning Of
TTITLE2=Every Reason Not To Go
TTITLE3=Don't
TTITLE4=People Are Crazy
TTITLE5=Everything
TTITLE6=Walk On
TTITLE7=No One Has Eyes Like You
TTITLE8=That's How Country Boys Roll
TTITLE9=I Shall Return
TTITLE10=Heal Me
EXTD=YEAR: 2008
EXTT0=
EXTT1=
EXTT2=
EXTT3=
EXTT4=
EXTT5=
EXTT6=
EXTT7=
EXTT8=
EXTT9=
EXTT10=
PLAYORDER=
